<svg xmlns="http://www.w3.org/2000/svg" width="610" height="274.445" viewBox="0 0 610 274.445">
  <g id="Grupo_983848" data-name="Grupo 983848" transform="translate(-495 -3203.026)">
    <g id="Trazado_728643" data-name="Trazado 728643" transform="translate(495 3258.472)" fill="#badc61">
      <path d="M 95 189.5 C 88.58797454833984 189.5 82.18012237548828 188.8540496826172 75.95442962646484 187.5800933837891 C 69.88721466064453 186.3385467529297 63.91930770874023 184.4860229492188 58.21649932861328 182.0739288330078 C 52.61709594726562 179.70556640625 47.21640396118164 176.7741851806641 42.16450119018555 173.3611907958984 C 37.16045379638672 169.9804992675781 32.45485687255859 166.0980224609375 28.17840385437012 161.8215942382812 C 23.90197563171387 157.5451354980469 20.01950073242188 152.8395538330078 16.63880920410156 147.8354949951172 C 13.22580909729004 142.7835998535156 10.29442882537842 137.3829040527344 7.926071643829346 131.7834930419922 C 5.513976097106934 126.0806884765625 3.661452293395996 120.1127853393555 2.419904708862305 114.0455703735352 C 1.145952343940735 107.8198776245117 0.5 101.4120254516602 0.5 95 C 0.5 88.58797454833984 1.145952343940735 82.18012237548828 2.419904708862305 75.95442962646484 C 3.661452293395996 69.88721466064453 5.513976097106934 63.91930770874023 7.926071643829346 58.21649932861328 C 10.29442882537842 52.61709594726562 13.22580909729004 47.21640396118164 16.63880920410156 42.16450119018555 C 20.01950073242188 37.16045379638672 23.90197563171387 32.45485687255859 28.17840385437012 28.17840385437012 C 32.45485687255859 23.90197563171387 37.16045379638672 20.01950073242188 42.16450119018555 16.63880920410156 C 47.21640396118164 13.22580909729004 52.61709594726562 10.29442882537842 58.21649932861328 7.926071643829346 C 63.91930770874023 5.513976097106934 69.88721466064453 3.661452293395996 75.95442962646484 2.419904708862305 C 82.18012237548828 1.145952343940735 88.58797454833984 0.5 95 0.5 C 101.4120254516602 0.5 107.8198776245117 1.145952343940735 114.0455703735352 2.419904708862305 C 120.1127853393555 3.661452293395996 126.0806884765625 5.513976097106934 131.7834930419922 7.926071643829346 C 137.3829040527344 10.29442882537842 142.7835998535156 13.22580909729004 147.8354949951172 16.63880920410156 C 152.8395538330078 20.01950073242188 157.5451354980469 23.90197563171387 161.8215942382812 28.17840385437012 C 166.0980224609375 32.45485687255859 169.9804992675781 37.16045379638672 173.3611907958984 42.16450119018555 C 176.7741851806641 47.21640396118164 179.70556640625 52.61709594726562 182.0739288330078 58.21649932861328 C 184.4860229492188 63.91930770874023 186.3385467529297 69.88721466064453 187.5800933837891 75.95442962646484 C 188.8540496826172 82.18012237548828 189.5 88.58797454833984 189.5 95 C 189.5 101.4120254516602 188.8540496826172 107.8198776245117 187.5800933837891 114.0455703735352 C 186.3385467529297 120.1127853393555 184.4860229492188 126.0806884765625 182.0739288330078 131.7834930419922 C 179.70556640625 137.3829040527344 176.7741851806641 142.7835998535156 173.3611907958984 147.8354949951172 C 169.9804992675781 152.8395538330078 166.0980224609375 157.5451354980469 161.8215942382812 161.8215942382812 C 157.5451354980469 166.0980224609375 152.8395538330078 169.9804992675781 147.8354949951172 173.3611907958984 C 142.7835998535156 176.7741851806641 137.3829040527344 179.70556640625 131.7834930419922 182.0739288330078 C 126.0806884765625 184.4860229492188 120.1127853393555 186.3385467529297 114.0455703735352 187.5800933837891 C 107.8198776245117 188.8540496826172 101.4120254516602 189.5 95 189.5 Z" stroke="none"/>
      <path d="M 95 1 C 88.62157440185547 1 82.24742126464844 1.642532348632812 76.05464935302734 2.909744262695312 C 70.019775390625 4.144668579101562 64.08370208740234 5.987350463867188 58.41127014160156 8.386581420898438 C 52.84159851074219 10.74235534667969 47.46957397460938 13.658203125 42.44439697265625 17.05313110351562 C 37.46672058105469 20.41596984863281 32.78590393066406 24.27803039550781 28.531982421875 28.531982421875 C 24.27803039550781 32.78590393066406 20.41596984863281 37.46672058105469 17.05313110351562 42.44439697265625 C 13.658203125 47.46957397460938 10.74235534667969 52.84159851074219 8.386581420898438 58.41127014160156 C 5.987350463867188 64.08370208740234 4.144668579101562 70.019775390625 2.909744262695312 76.05464935302734 C 1.642532348632812 82.24742126464844 1 88.62157440185547 1 95 C 1 101.3784255981445 1.642532348632812 107.7525787353516 2.909744262695312 113.9453506469727 C 4.144668579101562 119.980224609375 5.987350463867188 125.9162979125977 8.386581420898438 131.5887298583984 C 10.74235534667969 137.1584014892578 13.658203125 142.5304260253906 17.05313110351562 147.5556030273438 C 20.41596984863281 152.5332794189453 24.27803039550781 157.2140960693359 28.531982421875 161.468017578125 C 32.78590393066406 165.7219696044922 37.46672058105469 169.5840301513672 42.44439697265625 172.9468688964844 C 47.46957397460938 176.341796875 52.84159851074219 179.2576446533203 58.41127014160156 181.6134185791016 C 64.08370208740234 184.0126495361328 70.019775390625 185.8553314208984 76.05464935302734 187.0902557373047 C 82.24742126464844 188.3574676513672 88.62157440185547 189 95 189 C 101.3784255981445 189 107.7525787353516 188.3574676513672 113.9453506469727 187.0902557373047 C 119.980224609375 185.8553314208984 125.9162979125977 184.0126495361328 131.5887298583984 181.6134185791016 C 137.1584014892578 179.2576446533203 142.5304260253906 176.341796875 147.5556030273438 172.9468688964844 C 152.5332794189453 169.5840301513672 157.2140960693359 165.7219696044922 161.468017578125 161.468017578125 C 165.7219696044922 157.2140960693359 169.5840301513672 152.5332794189453 172.9468688964844 147.5556030273438 C 176.341796875 142.5304260253906 179.2576446533203 137.1584014892578 181.6134185791016 131.5887298583984 C 184.0126495361328 125.9162979125977 185.8553314208984 119.980224609375 187.0902557373047 113.9453506469727 C 188.3574676513672 107.7525787353516 189 101.3784255981445 189 95 C 189 88.62157440185547 188.3574676513672 82.24742126464844 187.0902557373047 76.05464935302734 C 185.8553314208984 70.019775390625 184.0126495361328 64.08370208740234 181.6134185791016 58.41127014160156 C 179.2576446533203 52.84159851074219 176.341796875 47.46957397460938 172.9468688964844 42.44439697265625 C 169.5840301513672 37.46672058105469 165.7219696044922 32.78590393066406 161.468017578125 28.531982421875 C 157.2140960693359 24.27803039550781 152.5332794189453 20.41596984863281 147.5556030273438 17.05313110351562 C 142.5304260253906 13.658203125 137.1584014892578 10.74235534667969 131.5887298583984 8.386581420898438 C 125.9162979125977 5.987350463867188 119.980224609375 4.144668579101562 113.9453506469727 2.909744262695312 C 107.7525787353516 1.642532348632812 101.3784255981445 1 95 1 M 95 0 C 147.467041015625 0 190 42.53294372558594 190 95 C 190 147.467041015625 147.467041015625 190 95 190 C 42.53294372558594 190 0 147.467041015625 0 95 C 0 42.53294372558594 42.53294372558594 0 95 0 Z" stroke="none" fill="#fff"/>
    </g>
    <path id="Trazado_728644" data-name="Trazado 728644" d="M0,0H190" transform="translate(495 3353.472)" fill="none" stroke="#fff" stroke-width="2"/>
    <path id="Trazado_728645" data-name="Trazado 728645" d="M0,0V190" transform="translate(590.5 3258.972)" fill="none" stroke="#fff" stroke-width="2"/>
    <path id="Trazado_728646" data-name="Trazado 728646" d="M17.59,15H15.332V6.285l-2.7.832V5.3l4.711-1.687h.242Zm4.5.977H20.41L24.6,3.625h1.68Zm11.852-5.258H35.23v1.82H33.941V15H31.684V12.539H27.02l-.1-1.422L31.66,3.625h2.281Zm-4.773,0h2.516V6.7l-.148.258Z" transform="translate(524 3313.472)" fill="#12263f"/>
    <path id="Trazado_728647" data-name="Trazado 728647" d="M17.59,15H15.332V6.285l-2.7.832V5.3l4.711-1.687h.242Zm4.5.977H20.41L24.6,3.625h1.68Zm11.852-5.258H35.23v1.82H33.941V15H31.684V12.539H27.02l-.1-1.422L31.66,3.625h2.281Zm-4.773,0h2.516V6.7l-.148.258Z" transform="translate(614 3313.472)" fill="#12263f"/>
    <path id="Trazado_728648" data-name="Trazado 728648" d="M17.59,15H15.332V6.285l-2.7.832V5.3l4.711-1.687h.242Zm4.5.977H20.41L24.6,3.625h1.68Zm11.852-5.258H35.23v1.82H33.941V15H31.684V12.539H27.02l-.1-1.422L31.66,3.625h2.281Zm-4.773,0h2.516V6.7l-.148.258Z" transform="translate(524 3379.472)" fill="#12263f"/>
    <path id="Trazado_728649" data-name="Trazado 728649" d="M17.59,15H15.332V6.285l-2.7.832V5.3l4.711-1.687h.242Zm4.5.977H20.41L24.6,3.625h1.68Zm11.852-5.258H35.23v1.82H33.941V15H31.684V12.539H27.02l-.1-1.422L31.66,3.625h2.281Zm-4.773,0h2.516V6.7l-.148.258Z" transform="translate(614 3379.472)" fill="#12263f"/>
    <g id="Trazado_728650" data-name="Trazado 728650" transform="translate(724 3283.722)" fill="#badc61">
      <path d="M 69.77509307861328 139.0499267578125 C 60.42280197143555 139.0499267578125 51.35050964355469 137.2183685302734 42.81025695800781 133.6061553955078 C 38.70552825927734 131.8700103759766 34.74647521972656 129.7210998535156 31.04307556152344 127.2191390991211 C 27.37474822998047 124.7408676147461 23.9251651763916 121.8946990966797 20.79020309448242 118.7597579956055 C 17.65523910522461 115.6247940063477 14.8090934753418 112.1752319335938 12.33080196380615 108.5069046020508 C 9.828838348388672 104.8035049438477 7.679929256439209 100.8444671630859 5.943783760070801 96.73973846435547 C 2.331547737121582 88.19950103759766 0.5000021457672119 79.12722778320312 0.5000021457672119 69.77495574951172 C 0.5000021457672119 60.42268371582031 2.331547737121582 51.35041046142578 5.943783760070801 42.81017303466797 C 7.679929256439209 38.70546340942383 9.828838348388672 34.74641036987305 12.33080196380615 31.04302787780762 C 14.8090934753418 27.37468338012695 17.65523910522461 23.92513847351074 20.79020309448242 20.79017448425293 C 23.9251651763916 17.65521049499512 27.37474822998047 14.8090648651123 31.04307556152344 12.33079242706299 C 34.74647521972656 9.828828811645508 38.70552825927734 7.679919242858887 42.81025695800781 5.943773746490479 C 51.35050964355469 2.331555843353271 60.42280197143555 0.5000103116035461 69.77509307861328 0.5000103116035461 C 79.12738037109375 0.5000103116035461 88.19967651367188 2.331555843353271 96.73992919921875 5.943773746490479 C 100.8446578979492 7.679919242858887 104.8037109375 9.828828811645508 108.5071105957031 12.33079242706299 C 112.1754379272461 14.8090648651123 115.6250228881836 17.65521049499512 118.7599868774414 20.79017448425293 C 121.8949508666992 23.92513847351074 124.741096496582 27.37468338012695 127.2193832397461 31.04302787780762 C 129.7213439941406 34.74641036987305 131.8702545166016 38.70546340942383 133.6063995361328 42.81017303466797 C 137.2186431884766 51.35041046142578 139.0501861572266 60.42268371582031 139.0501861572266 69.77495574951172 C 139.0501861572266 79.12722778320312 137.2186431884766 88.19950103759766 133.6063995361328 96.73973846435547 C 131.8702545166016 100.8444671630859 129.7213439941406 104.8035049438477 127.2193832397461 108.5069046020508 C 124.741096496582 112.1752319335938 121.8949508666992 115.6247940063477 118.7599868774414 118.7597579956055 C 115.6250228881836 121.8946990966797 112.1754379272461 124.7408676147461 108.5071105957031 127.2191390991211 C 104.8037109375 129.7210998535156 100.8446578979492 131.8700103759766 96.73992919921875 133.6061553955078 C 88.19967651367188 137.2183685302734 79.12738037109375 139.0499267578125 69.77509307861328 139.0499267578125 Z" stroke="none"/>
      <path d="M 69.77509307861328 0.9999847412109375 C 60.49007415771484 0.9999847412109375 51.48332977294922 2.818252563476562 43.00503540039062 6.404266357421875 C 38.93003845214844 8.127822875976562 34.99964141845703 10.26118469238281 31.32298278808594 12.74508666992188 C 27.68099975585938 15.20555877685547 24.25621795654297 18.03126525878906 21.14376831054688 21.14372253417969 C 18.03129577636719 24.25617218017578 15.20558166503906 27.68095397949219 12.74510955810547 31.32292175292969 C 10.26121520996094 34.99955749511719 8.127853393554688 38.92997741699219 6.404281616210938 43.00495910644531 C 2.818252563476562 51.48323059082031 1 60.48995208740234 1 69.77495574951172 C 1 79.05995178222656 2.818252563476562 88.06668090820312 6.404281616210938 96.54495239257812 C 8.127853393554688 100.6199340820312 10.26121520996094 104.5503387451172 12.74510955810547 108.2269744873047 C 15.20558166503906 111.8689575195312 18.03129577636719 115.2937393188477 21.14376831054688 118.4061889648438 C 24.25621795654297 121.5186462402344 27.68099975585938 124.344352722168 31.32298278808594 126.8048095703125 C 34.99964141845703 129.2886962890625 38.93003845214844 131.4220581054688 43.00503540039062 133.1456298828125 C 51.48332977294922 136.7316436767578 60.49007415771484 138.5498962402344 69.77509307861328 138.5498962402344 C 79.06011199951172 138.5498962402344 88.06685638427734 136.7316436767578 96.54515075683594 133.1456298828125 C 100.6201477050781 131.4220581054688 104.5505523681641 129.2886962890625 108.2272033691406 126.8048095703125 C 111.8691864013672 124.344352722168 115.2939682006836 121.5186462402344 118.4064178466797 118.4061889648438 C 121.5188903808594 115.2937393188477 124.3446044921875 111.8689575195312 126.8050765991211 108.2269744873047 C 129.2889709472656 104.5503387451172 131.4223327636719 100.6199340820312 133.1459045410156 96.54495239257812 C 136.73193359375 88.06668090820312 138.5501861572266 79.05995178222656 138.5501861572266 69.77495574951172 C 138.5501861572266 60.48995208740234 136.73193359375 51.48323059082031 133.1459045410156 43.00495910644531 C 131.4223327636719 38.92997741699219 129.2889709472656 34.99955749511719 126.8050765991211 31.32292175292969 C 124.3446044921875 27.68095397949219 121.5188903808594 24.25617218017578 118.4064178466797 21.14372253417969 C 115.2939682006836 18.03126525878906 111.8691864013672 15.20555877685547 108.2272033691406 12.74508666992188 C 104.5505523681641 10.26118469238281 100.6201477050781 8.127822875976562 96.54515075683594 6.404266357421875 C 88.06685638427734 2.818252563476562 79.06011199951172 0.9999847412109375 69.77509307861328 0.9999847412109375 M 69.77509307861328 -1.52587890625e-05 C 108.3108062744141 -1.52587890625e-05 139.5501861572266 31.23931884765625 139.5501861572266 69.77495574951172 C 139.5501861572266 108.3105926513672 108.3108062744141 139.5498962402344 69.77509307861328 139.5498962402344 C 31.23938751220703 139.5498962402344 0 108.3105926513672 0 69.77495574951172 C 0 31.23931884765625 31.23938751220703 -1.52587890625e-05 69.77509307861328 -1.52587890625e-05 Z" stroke="none" fill="#fff"/>
    </g>
    <path id="Trazado_728651" data-name="Trazado 728651" d="M0,0H139.55" transform="translate(724 3353.497)" fill="none" stroke="#fff" stroke-width="2"/>
    <path id="Trazado_728652" data-name="Trazado 728652" d="M0,0V139.719" transform="translate(794.227 3284.09)" fill="none" stroke="#fff" stroke-width="2"/>
    <path id="Trazado_728653" data-name="Trazado 728653" d="M11.265,15H9.007V6.285l-2.7.832V5.3l4.711-1.687h.242Zm4.5.977h-1.68L18.273,3.625h1.68Zm11.852-5.258h1.289v1.82H27.617V15H25.359V12.539H20.695l-.1-1.422,4.742-7.492h2.281Zm-4.773,0h2.516V6.7l-.148.258Z" transform="translate(745.469 3319.513)" fill="#12263f"/>
    <path id="Trazado_728654" data-name="Trazado 728654" d="M11.265,15H9.007V6.285l-2.7.832V5.3l4.711-1.687h.242Zm4.5.977h-1.68L18.273,3.625h1.68Zm11.852-5.258h1.289v1.82H27.617V15H25.359V12.539H20.695l-.1-1.422,4.742-7.492h2.281Zm-4.773,0h2.516V6.7l-.148.258Z" transform="translate(812.024 3319.513)" fill="#12263f"/>
    <path id="Trazado_728655" data-name="Trazado 728655" d="M11.265,15H9.007V6.285l-2.7.832V5.3l4.711-1.687h.242Zm4.5.977h-1.68L18.273,3.625h1.68Zm11.852-5.258h1.289v1.82H27.617V15H25.359V12.539H20.695l-.1-1.422,4.742-7.492h2.281Zm-4.773,0h2.516V6.7l-.148.258Z" transform="translate(744.469 3367.819)" fill="#12263f"/>
    <path id="Trazado_728656" data-name="Trazado 728656" d="M11.265,15H9.007V6.285l-2.7.832V5.3l4.711-1.687h.242Zm4.5.977h-1.68L18.273,3.625h1.68Zm11.852-5.258h1.289v1.82H27.617V15H25.359V12.539H20.695l-.1-1.422,4.742-7.492h2.281Zm-4.773,0h2.516V6.7l-.148.258Z" transform="translate(811.024 3367.819)" fill="#12263f"/>
    <g id="Trazado_728657" data-name="Trazado 728657" transform="translate(899.524 3296.328)" fill="#badc61">
      <path d="M 57.42254257202148 114.3450088500977 C 49.73783493041992 114.3450088500977 42.28324890136719 112.8400573730469 35.2658805847168 109.8719635009766 C 31.89309692382812 108.4453964233398 28.6400032043457 106.6796722412109 25.59695816040039 104.6238403320312 C 22.58271217346191 102.5874404907227 19.74822044372559 100.248779296875 17.1722354888916 97.67279052734375 C 14.59625053405762 95.09680938720703 12.25757312774658 92.26231384277344 10.22118854522705 89.24806976318359 C 8.165342330932617 86.20502471923828 6.399619579315186 82.95193481445312 4.973050117492676 79.57914733886719 C 2.004957914352417 72.56177520751953 0.5000041127204895 65.10720825195312 0.5000041127204895 57.42250061035156 C 0.5000041127204895 49.73779296875 2.004957914352417 42.28322219848633 4.973050117492676 35.26585388183594 C 6.399619579315186 31.89307022094727 8.165342330932617 28.63997840881348 10.22118854522705 25.59694671630859 C 12.25757312774658 22.58268547058105 14.59625053405762 19.74820899963379 17.1722354888916 17.1722240447998 C 19.74822044372559 14.59623908996582 22.58271217346191 12.25756168365479 25.59695816040039 10.22117710113525 C 28.6400032043457 8.165347099304199 31.89309692382812 6.399623870849609 35.2658805847168 4.9730544090271 C 42.28324890136719 2.004962205886841 49.73783493041992 0.5000082850456238 57.42254257202148 0.5000082850456238 C 65.10726928710938 0.5000082850456238 72.56183624267578 2.004962205886841 79.57921600341797 4.9730544090271 C 82.95200347900391 6.399623870849609 86.20509338378906 8.165347099304199 89.24813079833984 10.22117710113525 C 92.26239013671875 12.25756168365479 95.09686279296875 14.59623908996582 97.67286682128906 17.1722240447998 C 100.2488479614258 19.74820899963379 102.5875091552734 22.58268547058105 104.623893737793 25.59694671630859 C 106.6797409057617 28.63997840881348 108.4454650878906 31.89307022094727 109.8720321655273 35.26585388183594 C 112.8401260375977 42.28322219848633 114.3450775146484 49.73779296875 114.3450775146484 57.42250061035156 C 114.3450775146484 65.10720825195312 112.8401260375977 72.56177520751953 109.8720321655273 79.57914733886719 C 108.4454650878906 82.95193481445312 106.6797409057617 86.20502471923828 104.623893737793 89.24806976318359 C 102.5875091552734 92.26231384277344 100.2488479614258 95.09680938720703 97.67286682128906 97.67279052734375 C 95.09686279296875 100.248779296875 92.26239013671875 102.5874404907227 89.24813079833984 104.6238403320312 C 86.20509338378906 106.6796722412109 82.95200347900391 108.4453964233398 79.57921600341797 109.8719635009766 C 72.56183624267578 112.8400573730469 65.10726928710938 114.3450088500977 57.42254257202148 114.3450088500977 Z" stroke="none"/>
      <path d="M 57.42254257202148 0.9999923706054688 C 49.80511474609375 0.9999923706054688 42.41605377197266 2.491653442382812 35.46064758300781 5.433547973632812 C 32.11759185791016 6.8475341796875 28.89314270019531 8.59771728515625 25.87686920166016 10.63548278808594 C 22.88897705078125 12.654052734375 20.07926940917969 14.97228240966797 17.52577209472656 17.52576446533203 C 14.97229766845703 20.07925415039062 12.65406799316406 22.88896179199219 10.635498046875 25.87683868408203 C 8.597724914550781 28.89311218261719 6.847541809082031 32.11757659912109 5.433555603027344 35.46062469482422 C 2.491668701171875 42.41602325439453 1.000007629394531 49.80506896972656 1.000007629394531 57.42250061035156 C 1.000007629394531 65.03993225097656 2.491668701171875 72.42897796630859 5.433555603027344 79.38437652587891 C 6.847541809082031 82.72742462158203 8.597724914550781 85.95187377929688 10.635498046875 88.96816253662109 C 12.65406799316406 91.95603942871094 14.97229766845703 94.7657470703125 17.52577209472656 97.31922149658203 C 20.07926940917969 99.87271881103516 22.88897705078125 102.1909332275391 25.87686920166016 104.2095184326172 C 28.89314270019531 106.2472686767578 32.11759185791016 107.9974517822266 35.46064758300781 109.4114379882812 C 42.41605377197266 112.3533325195312 49.80511474609375 113.8449935913086 57.42254257202148 113.8449935913086 C 65.03997802734375 113.8449935913086 72.42903137207031 112.3533325195312 79.38442993164062 109.4114379882812 C 82.72749328613281 107.9974517822266 85.95194244384766 106.2472686767578 88.96821594238281 104.2095184326172 C 91.95611572265625 102.1909332275391 94.76582336425781 99.87271881103516 97.31931304931641 97.31922149658203 C 99.87278747558594 94.7657470703125 102.1910171508789 91.95603942871094 104.209587097168 88.96816253662109 C 106.2473602294922 85.95187377929688 107.9975433349609 82.72742462158203 109.4115295410156 79.38437652587891 C 112.3534164428711 72.42897796630859 113.8450775146484 65.03993225097656 113.8450775146484 57.42250061035156 C 113.8450775146484 49.80506896972656 112.3534164428711 42.41602325439453 109.4115295410156 35.46062469482422 C 107.9975433349609 32.11757659912109 106.2473602294922 28.89311218261719 104.209587097168 25.87683868408203 C 102.1910171508789 22.88896179199219 99.87278747558594 20.07925415039062 97.31931304931641 17.52576446533203 C 94.76582336425781 14.97228240966797 91.95611572265625 12.654052734375 88.96821594238281 10.63548278808594 C 85.95194244384766 8.59771728515625 82.72749328613281 6.8475341796875 79.38442993164062 5.433547973632812 C 72.42903137207031 2.491653442382812 65.03997802734375 0.9999923706054688 57.42254257202148 0.9999923706054688 M 57.42254257202148 -7.62939453125e-06 C 89.13613891601562 -7.62939453125e-06 114.8450775146484 25.70893096923828 114.8450775146484 57.42250061035156 C 114.8450775146484 89.13607025146484 89.13613891601562 114.8449935913086 57.42254257202148 114.8449935913086 C 25.70894622802734 114.8449935913086 7.62939453125e-06 89.13607025146484 7.62939453125e-06 57.42250061035156 C 7.62939453125e-06 25.70893096923828 25.70894622802734 -7.62939453125e-06 57.42254257202148 -7.62939453125e-06 Z" stroke="none" fill="#fff"/>
    </g>
    <path id="Trazado_728658" data-name="Trazado 728658" d="M0,0H114.845" transform="translate(899.524 3353.751)" fill="none" stroke="#fff" stroke-width="2"/>
    <path id="Trazado_728659" data-name="Trazado 728659" d="M0,0V114.984" transform="translate(957.318 3296.631)" fill="none" stroke="#fff" stroke-width="2"/>
    <path id="Trazado_728660" data-name="Trazado 728660" d="M8.08,15H5.822V6.285l-2.7.832V5.3L7.838,3.609H8.08Zm4.5.977H10.9L15.088,3.625h1.68Zm11.852-5.258h1.289v1.82H24.432V15H22.174V12.539H17.51l-.1-1.422,4.742-7.492h2.281Zm-4.773,0h2.516V6.7l-.148.258Z" transform="translate(920.192 3324.897)" fill="#12263f"/>
    <path id="Trazado_728661" data-name="Trazado 728661" d="M8.08,15H5.822V6.285l-2.7.832V5.3L7.838,3.609H8.08Zm4.5.977H10.9L15.088,3.625h1.68Zm11.852-5.258h1.289v1.82H24.432V15H22.174V12.539H17.51l-.1-1.422,4.742-7.492h2.281Zm-4.773,0h2.516V6.7l-.148.258Z" transform="translate(965.966 3324.897)" fill="#12263f"/>
    <path id="Trazado_728662" data-name="Trazado 728662" d="M8.08,15H5.822V6.285l-2.7.832V5.3L7.838,3.609H8.08Zm4.5.977H10.9L15.088,3.625h1.68Zm11.852-5.258h1.289v1.82H24.432V15H22.174V12.539H17.51l-.1-1.422,4.742-7.492h2.281Zm-4.773,0h2.516V6.7l-.148.258Z" transform="translate(920.192 3364.652)" fill="#12263f"/>
    <path id="Trazado_728663" data-name="Trazado 728663" d="M8.08,15H5.822V6.285l-2.7.832V5.3L7.838,3.609H8.08Zm4.5.977H10.9L15.088,3.625h1.68Zm11.852-5.258h1.289v1.82H24.432V15H22.174V12.539H17.51l-.1-1.422,4.742-7.492h2.281Zm-4.773,0h2.516V6.7l-.148.258Z" transform="translate(965.966 3364.652)" fill="#12263f"/>
    <path id="Trazado_728664" data-name="Trazado 728664" d="M26.5,0A26.5,26.5,0,1,1,0,26.5,26.5,26.5,0,0,1,26.5,0Z" transform="translate(1052 3326.472)" fill="#cedba6"/>
    <g id="Grupo_967243" data-name="Grupo 967243" transform="translate(591 3229.472)">
      <line id="Línea_459" data-name="Línea 459" y2="19" fill="none" stroke="#0e494d" stroke-width="2" stroke-dasharray="6"/>
      <line id="Línea_460" data-name="Línea 460" y2="40" transform="translate(189)" fill="none" stroke="#0e494d" stroke-width="2" stroke-dasharray="6"/>
      <line id="Línea_461" data-name="Línea 461" x2="189" fill="none" stroke="#0e494d" stroke-width="2" stroke-dasharray="6"/>
      <path id="Polígono_27" data-name="Polígono 27" d="M8.464,1.844a2,2,0,0,1,3.073,0l5.73,6.876A2,2,0,0,1,15.73,12H4.27A2,2,0,0,1,2.734,8.72Z" transform="translate(199 51) rotate(-180)" fill="#0e494d"/>
    </g>
    <g id="Grupo_967244" data-name="Grupo 967244" transform="translate(591 3425.472)">
      <line id="Línea_459-2" data-name="Línea 459" y1="19" transform="translate(0 32)" fill="none" stroke="#0e494d" stroke-width="2" stroke-dasharray="6"/>
      <line id="Línea_460-2" data-name="Línea 460" y1="40" transform="translate(189 11)" fill="none" stroke="#0e494d" stroke-width="2" stroke-dasharray="6"/>
      <line id="Línea_461-2" data-name="Línea 461" x2="189" transform="translate(0 51)" fill="none" stroke="#0e494d" stroke-width="2" stroke-dasharray="6"/>
      <path id="Polígono_27-2" data-name="Polígono 27" d="M8.464,1.844a2,2,0,0,1,3.073,0l5.73,6.876A2,2,0,0,1,15.73,12H4.27A2,2,0,0,1,2.734,8.72Z" transform="translate(179)" fill="#0e494d"/>
    </g>
    <g id="Grupo_967245" data-name="Grupo 967245" transform="translate(418 846.972)">
      <line id="Línea_459-3" data-name="Línea 459" y2="28" transform="translate(381 2408.5)" fill="none" stroke="#0e494d" stroke-width="2" stroke-dasharray="6"/>
      <line id="Línea_460-3" data-name="Línea 460" y2="34" transform="translate(531 2408.5)" fill="none" stroke="#0e494d" stroke-width="2" stroke-dasharray="6"/>
      <line id="Línea_461-3" data-name="Línea 461" x2="150" transform="translate(381 2408.5)" fill="none" stroke="#0e494d" stroke-width="2" stroke-dasharray="6"/>
      <path id="Polígono_27-3" data-name="Polígono 27" d="M8.464,1.844a2,2,0,0,1,3.073,0l5.73,6.876A2,2,0,0,1,15.73,12H4.27A2,2,0,0,1,2.734,8.72Z" transform="translate(541 2448.5) rotate(-180)" fill="#0e494d"/>
    </g>
    <g id="Grupo_967246" data-name="Grupo 967246" transform="translate(799 3412.472)">
      <line id="Línea_459-4" data-name="Línea 459" y1="28" transform="translate(0 12)" fill="none" stroke="#0e494d" stroke-width="2" stroke-dasharray="6"/>
      <line id="Línea_460-4" data-name="Línea 460" y1="34" transform="translate(150 6)" fill="none" stroke="#0e494d" stroke-width="2" stroke-dasharray="6"/>
      <line id="Línea_461-4" data-name="Línea 461" x2="150" transform="translate(0 40)" fill="none" stroke="#0e494d" stroke-width="2" stroke-dasharray="6"/>
      <path id="Polígono_27-4" data-name="Polígono 27" d="M8.464,1.844a2,2,0,0,1,3.073,0l5.73,6.876A2,2,0,0,1,15.73,12H4.27A2,2,0,0,1,2.734,8.72Z" transform="translate(140)" fill="#0e494d"/>
    </g>
    <g id="Grupo_967247" data-name="Grupo 967247" transform="translate(583 872.972)">
      <line id="Línea_459-5" data-name="Línea 459" y2="14" transform="translate(381 2408.5)" fill="none" stroke="#0e494d" stroke-width="2" stroke-dasharray="6"/>
      <line id="Línea_460-5" data-name="Línea 460" y2="34" transform="translate(496 2408.5)" fill="none" stroke="#0e494d" stroke-width="2" stroke-dasharray="6"/>
      <line id="Línea_461-5" data-name="Línea 461" x2="115" transform="translate(381 2408.5)" fill="none" stroke="#0e494d" stroke-width="2" stroke-dasharray="6"/>
      <path id="Polígono_27-5" data-name="Polígono 27" d="M8.464,1.844a2,2,0,0,1,3.073,0l5.73,6.876A2,2,0,0,1,15.73,12H4.27A2,2,0,0,1,2.734,8.72Z" transform="translate(506 2448.5) rotate(-180)" fill="#0e494d"/>
    </g>
    <g id="Grupo_967248" data-name="Grupo 967248" transform="translate(964 3384.472)">
      <line id="Línea_459-6" data-name="Línea 459" y1="14" transform="translate(0 26)" fill="none" stroke="#0e494d" stroke-width="2" stroke-dasharray="6"/>
      <line id="Línea_460-6" data-name="Línea 460" y1="34" transform="translate(115 6)" fill="none" stroke="#0e494d" stroke-width="2" stroke-dasharray="6"/>
      <line id="Línea_461-6" data-name="Línea 461" x2="115" transform="translate(0 40)" fill="none" stroke="#0e494d" stroke-width="2" stroke-dasharray="6"/>
      <path id="Polígono_27-6" data-name="Polígono 27" d="M8.464,1.844a2,2,0,0,1,3.073,0l5.73,6.876A2,2,0,0,1,15.73,12H4.27A2,2,0,0,1,2.734,8.72Z" transform="translate(105)" fill="#0e494d"/>
    </g>
    <path id="Trazado_728642" data-name="Trazado 728642" d="M17.043,3.625l2.922,8.25,2.906-8.25h3.078V15H23.6V11.891l.234-5.367L20.762,15H19.152L16.09,6.531l.234,5.359V15H13.98V3.625Zm17.8,6.43h-4.5v3.063h5.281V15H28V3.625h7.609v1.9H30.34V8.234h4.5ZM32.395.555h2.461L32.691,2.977H30.855Zm13.32,4.969H42.23V15H39.887V5.523H36.449v-1.9h9.266ZM56.176,9.57a6.867,6.867,0,0,1-.594,2.945,4.472,4.472,0,0,1-1.7,1.953,5.021,5.021,0,0,1-5.059.008,4.515,4.515,0,0,1-1.719-1.941,6.67,6.67,0,0,1-.617-2.9V9.07a6.831,6.831,0,0,1,.605-2.957A4.508,4.508,0,0,1,48.8,4.152a5.014,5.014,0,0,1,5.055,0A4.508,4.508,0,0,1,55.57,6.113a6.811,6.811,0,0,1,.605,2.949ZM53.8,9.055a4.787,4.787,0,0,0-.641-2.719,2.263,2.263,0,0,0-3.648-.012,4.732,4.732,0,0,0-.648,2.691V9.57a4.847,4.847,0,0,0,.641,2.7,2.243,2.243,0,0,0,3.656.035,4.819,4.819,0,0,0,.641-2.7ZM57.879,15V3.625h3.5a5.315,5.315,0,0,1,2.684.676A4.712,4.712,0,0,1,65.91,6.223a5.928,5.928,0,0,1,.664,2.832v.523a5.945,5.945,0,0,1-.652,2.82,4.672,4.672,0,0,1-1.84,1.914A5.355,5.355,0,0,1,61.4,15Zm2.344-9.477v7.594h1.133a2.545,2.545,0,0,0,2.1-.9,4.06,4.06,0,0,0,.742-2.57v-.6a4.124,4.124,0,0,0-.719-2.629,2.537,2.537,0,0,0-2.1-.895Zm17.4,4.047a6.867,6.867,0,0,1-.594,2.945,4.472,4.472,0,0,1-1.7,1.953,5.021,5.021,0,0,1-5.059.008,4.515,4.515,0,0,1-1.719-1.941,6.67,6.67,0,0,1-.617-2.9V9.07a6.831,6.831,0,0,1,.605-2.957A4.508,4.508,0,0,1,70.25,4.152a5.014,5.014,0,0,1,5.055,0,4.508,4.508,0,0,1,1.711,1.961,6.811,6.811,0,0,1,.605,2.949Zm-2.375-.516a4.787,4.787,0,0,0-.641-2.719,2.263,2.263,0,0,0-3.648-.012,4.732,4.732,0,0,0-.648,2.691V9.57a4.847,4.847,0,0,0,.641,2.7,2.243,2.243,0,0,0,3.656.035,4.819,4.819,0,0,0,.641-2.7ZM83.309,15V3.625h3.5a5.315,5.315,0,0,1,2.684.676A4.712,4.712,0,0,1,91.34,6.223,5.928,5.928,0,0,1,92,9.055v.523a5.945,5.945,0,0,1-.652,2.82,4.672,4.672,0,0,1-1.84,1.914,5.355,5.355,0,0,1-2.68.688Zm2.344-9.477v7.594h1.133a2.545,2.545,0,0,0,2.1-.9,4.06,4.06,0,0,0,.742-2.57v-.6a4.124,4.124,0,0,0-.719-2.629,2.537,2.537,0,0,0-2.1-.895Zm14.9,4.531h-4.5v3.063h5.281V15H93.707V3.625h7.609v1.9H96.051V8.234h4.5Zm15.07,1.156a4.025,4.025,0,0,1-1.355,2.891,4.76,4.76,0,0,1-3.223,1.055,4.28,4.28,0,0,1-3.441-1.473,6.038,6.038,0,0,1-1.254-4.043v-.7a6.819,6.819,0,0,1,.578-2.891,4.332,4.332,0,0,1,1.652-1.918,5.164,5.164,0,0,1,5.668.387,4.326,4.326,0,0,1,1.391,2.961h-2.344a2.376,2.376,0,0,0-.613-1.6,2.271,2.271,0,0,0-1.605-.5,1.991,1.991,0,0,0-1.754.84,4.707,4.707,0,0,0-.6,2.605V9.7a5.038,5.038,0,0,0,.559,2.7,1.954,1.954,0,0,0,1.762.852,2.314,2.314,0,0,0,1.621-.5,2.241,2.241,0,0,0,.613-1.535ZM125.77,3.625v7.492A3.836,3.836,0,0,1,124.6,14.07a4.5,4.5,0,0,1-3.191,1.086,4.553,4.553,0,0,1-3.164-1.055,3.77,3.77,0,0,1-1.2-2.9V3.625h2.344v7.508a2.167,2.167,0,0,0,.535,1.629,2.054,2.054,0,0,0,1.48.512q1.977,0,2.008-2.078V3.625Zm8.172,9.031h-4.109L129.051,15h-2.492l4.234-11.375h2.172L137.223,15H134.73Zm-3.477-1.9h2.844L131.879,6.5Zm12.031.078h-1.867V15h-2.344V3.625h4.227a4.778,4.778,0,0,1,3.109.9,3.1,3.1,0,0,1,1.094,2.539,3.5,3.5,0,0,1-.5,1.941,3.437,3.437,0,0,1-1.527,1.238l2.461,4.648V15h-2.516Zm-1.867-1.9h1.891a1.936,1.936,0,0,0,1.367-.449,1.606,1.606,0,0,0,.484-1.238,1.719,1.719,0,0,0-.457-1.266,1.9,1.9,0,0,0-1.4-.461h-1.883Zm16.039-3.414h-3.484V15H150.84V5.523H147.4v-1.9h9.266Zm8.18,4.531h-4.5v3.063h5.281V15H158V3.625h7.609v1.9h-5.266V8.234h4.5Zm11.5-.484a6.867,6.867,0,0,1-.594,2.945,4.471,4.471,0,0,1-1.7,1.953,5.021,5.021,0,0,1-5.059.008,4.515,4.515,0,0,1-1.719-1.941,6.67,6.67,0,0,1-.617-2.9V9.07a6.831,6.831,0,0,1,.605-2.957,4.508,4.508,0,0,1,1.711-1.961,5.014,5.014,0,0,1,5.055,0,4.508,4.508,0,0,1,1.711,1.961,6.811,6.811,0,0,1,.605,2.949Zm-2.375-.516a4.787,4.787,0,0,0-.641-2.719,2.263,2.263,0,0,0-3.648-.012,4.732,4.732,0,0,0-.648,2.691V9.57a4.847,4.847,0,0,0,.641,2.7,2.243,2.243,0,0,0,3.656.035,4.819,4.819,0,0,0,.641-2.7Z" transform="translate(705 3202.472)" fill="#12263f"/>
  </g>
</svg>
