<svg xmlns="http://www.w3.org/2000/svg" width="46.967" height="47.076" viewBox="0 0 46.967 47.076">
  <g id="Grupo_967378" data-name="Grupo 967378" transform="translate(-12.742 -11.997)">
    <g id="Grupo_967377" data-name="Grupo 967377" transform="translate(12.742 11.997)">
      <path id="Trazado_728242" data-name="Trazado 728242" d="M74.919,20.62v-.756A2.37,2.37,0,0,1,72.7,18.189a2.34,2.34,0,0,1,2.18-3.051q1.173-.029,2.346,0a.475.475,0,0,0,.522-.317c.221-.489.471-.965.713-1.444A2.341,2.341,0,0,1,80.69,12q7.552,0,15.1,0A2.341,2.341,0,0,1,98,13.338c.258.489.507.984.734,1.488a.472.472,0,0,0,.522.316c.684-.021,1.368-.008,2.053-.007a2.366,2.366,0,1,1,.249,4.721v3.91q0,1.566,0,3.131c-.005.179-.016.358-.016.537,0,3.835.012,7.669-.012,11.5a33.67,33.67,0,0,1-.19,3.608c-.382,3.335-.81,6.666-1.248,9.994a2.513,2.513,0,0,1-.445,1.25,4.414,4.414,0,0,1-1.221.725V56.7q-.008.366-.016.733a1.572,1.572,0,0,1-1.6,1.617c-.439.009-.879,0-1.319,0a1.624,1.624,0,0,1-1.8-1.55H82.94a4.235,4.235,0,0,1-.829,1.2,3.308,3.308,0,0,1-1.372.342,6.679,6.679,0,0,1-1.073.008,1.575,1.575,0,0,1-1.6-1.613q-.007-.366-.015-.733V54.376a1.652,1.652,0,0,1-1.661-1.684c-.31-2.491-.653-4.978-.934-7.472-.212-1.876-.388-3.759-.507-5.643-.074-1.17-.012-2.349-.014-3.524q-.007-4.577-.016-9.155V23.764q0-1.572,0-3.144m3.053,32.161c1.076,0,2.1,0,3.127,0a1.573,1.573,0,0,1,1.662,1.654c.006.484,0,.969,0,1.452H93.72c0-.453,0-.875,0-1.3a1.605,1.605,0,0,1,1.8-1.809c.991,0,1.982,0,2.984,0,.333-2.669.665-5.291.985-7.915a38,38,0,0,0,.467-4.279c.05-6.732.022-13.464.022-20.2v-.52H76.5v.563q0,9.755,0,19.51a14.333,14.333,0,0,0,.092,1.708c.448,3.694.912,7.387,1.376,11.13M88.249,18.272h12.906a2.73,2.73,0,0,0,.488-.012.78.78,0,0,0,.007-1.545,2.029,2.029,0,0,0-.39-.011H75.2a1.906,1.906,0,0,0-.39.014.779.779,0,0,0-.006,1.537,2.272,2.272,0,0,0,.487.016H88.249m-8.906-3.156H97.135a6.356,6.356,0,0,0-.571-1.1,1.127,1.127,0,0,0-.743-.431q-7.578-.037-15.155,0a1,1,0,0,0-.7.345,7.936,7.936,0,0,0-.625,1.19m.316,42.337h1.5v-3.1h-1.5Zm17.16-3.067H95.308v3.079H96.82Z" transform="translate(-64.76 -11.997)" fill="#010101"/>
      <path id="Trazado_728243" data-name="Trazado 728243" d="M43.646,125.983q.008,4.577.016,9.154c0,1.175-.06,2.354.014,3.524.12,1.884.3,3.767.507,5.643.282,2.494.624,4.982.934,7.472a1.652,1.652,0,0,0,1.661,1.684v2.332H45.242l-.04-.811H42.879c0-.508,0-.964,0-1.42a1.573,1.573,0,0,0-1.671-1.694c-.8-.006-1.6,0-2.4,0a.855.855,0,0,1-1-.783c-.274-1.091-.51-2.192-.818-3.273a10.976,10.976,0,0,1-.385-3.088c.02-5.781.01-11.562.01-17.343v-.62h5.5v-.777h1.533" transform="translate(-33.488 -111.083)" fill="#72c87b"/>
      <path id="Trazado_728244" data-name="Trazado 728244" d="M270.343,155.792V153.6a4.411,4.411,0,0,0,1.221-.725,2.512,2.512,0,0,0,.445-1.25c.438-3.329.866-6.659,1.248-9.994a33.664,33.664,0,0,0,.19-3.608c.024-3.834.01-7.669.012-11.5,0-.179.01-.358.016-.537h1.533c.013.254.027.508.043.809h5.437c.007.115.015.179.015.244q0,9.5,0,19.007a1.642,1.642,0,0,1-.036.388q-.579,2.349-1.17,4.7c-.142.561-.387.736-.984.739-.815,0-1.63-.006-2.445,0a1.569,1.569,0,0,0-1.624,1.641c-.006.485,0,.97,0,1.5h-2.364v.777h-1.534" transform="translate(-236.67 -111.085)" fill="#e55c52"/>
      <path id="Trazado_728245" data-name="Trazado 728245" d="M282.077,109.652v-.777h2.364c0-.533,0-1.018,0-1.5a1.569,1.569,0,0,1,1.624-1.641c.815-.009,1.63,0,2.445,0,.6,0,.842-.178.984-.739q.594-2.345,1.17-4.7a1.643,1.643,0,0,0,.036-.388q0-9.5,0-19.007c0-.064-.008-.129-.015-.244h-5.437l-.043-.809.041-.783c2.041,0,4.042,0,6.043,0,.617,0,.973-.292.973-.782s-.355-.783-.971-.784q-2.76,0-5.521,0h-.565v-.78l.042-.8h2.076c-.144-.6-.116-1.225-.726-1.548l.141-.69.285-.774c1.088.368,1.308.706,1.95,3.019h2.266a2.361,2.361,0,0,1,2.531,1.844,2.387,2.387,0,0,1-1.5,2.735c0,.179,0,.373,0,.568,0,5.928-.016,11.857-.006,17.785a10.514,10.514,0,0,1-.365,2.992c-.336,1.157-.6,2.333-.884,3.506a2.412,2.412,0,0,1-1.876,1.9c0,.964,0,1.94,0,2.917A1.611,1.611,0,0,1,287.306,112H286.23a1.63,1.63,0,0,1-1.809-1.559h-2.308c-.013-.284-.024-.538-.036-.792m5.462-2.316h-1.508v3.074h1.508Z" transform="translate(-246.87 -64.944)" fill="#020202"/>
      <path id="Trazado_728246" data-name="Trazado 728246" d="M21.367,79.841v.777h-5.5v.62c0,5.781.01,11.562-.009,17.343a10.977,10.977,0,0,0,.385,3.088c.308,1.081.544,2.182.818,3.272a.855.855,0,0,0,1,.783c.8,0,1.6,0,2.4,0a1.574,1.574,0,0,1,1.671,1.694c0,.456,0,.913,0,1.42h2.323c.015.3.027.557.04.811v.765h-2.3c-.321,1.241-.773,1.584-2.049,1.584-.375,0-.75.007-1.125,0a1.563,1.563,0,0,1-1.578-1.588c-.012-1.044,0-2.088,0-3.153a2.561,2.561,0,0,1-1.96-2.2c-.313-1.416-.69-2.817-1.02-4.229a5.175,5.175,0,0,1-.145-1.157q-.013-9.338,0-18.676a.663.663,0,0,0-.4-.711,2.278,2.278,0,0,1-1.109-2.544,2.31,2.31,0,0,1,2.2-1.817c.862-.018,1.725,0,2.6,0,.308-1.235.427-2.566,1.934-3.02l.309.791.117.684c-.631.315-.559.953-.736,1.556h2.133v.774c-.013.254-.026.507-.041.782-2.042,0-4.043,0-6.045,0-.618,0-.972.291-.972.783s.354.783.972.784q2.761,0,5.522,0h.563Zm-2.33,30.551h1.506v-3.075H19.036Z" transform="translate(-12.742 -64.942)" fill="#010101"/>
      <path id="Trazado_728247" data-name="Trazado 728247" d="M64.536,81.106v-.774H62.4c.178-.6.105-1.241.736-1.556l-.117-.684a2.667,2.667,0,0,1,.536-.119c.837-.014,1.674-.009,2.512-.011q0,1.572,0,3.144H64.536" transform="translate(-55.911 -69.339)" fill="#72c87b"/>
      <path id="Trazado_728248" data-name="Trazado 728248" d="M297.358,78.089l-.141.69c.611.323.582.944.726,1.548h-2.076l-.042.8h-1.534q0-1.572,0-3.144c.839,0,1.677,0,2.516.008a3.194,3.194,0,0,1,.551.1" transform="translate(-257.488 -69.353)" fill="#cb5249"/>
      <path id="Trazado_728249" data-name="Trazado 728249" d="M104.021,105.142c-.465-3.743-.928-7.435-1.376-11.13a14.31,14.31,0,0,1-.092-1.709q-.009-9.755,0-19.509v-.563h23.483v.52c0,6.732.028,13.464-.022,20.2a38.053,38.053,0,0,1-.467,4.279c-.32,2.624-.652,5.246-.985,7.915-1,0-1.993,0-2.984,0a1.606,1.606,0,0,0-1.8,1.809c0,.423,0,.845,0,1.3H108.811c0-.483,0-.967,0-1.452a1.573,1.573,0,0,0-1.662-1.654c-1.026-.006-2.051,0-3.127,0M114.8,86.813l3.6-3.609-3.56-3.57L113.753,80.7l1.742,1.7c-.772,0-1.466-.018-2.158,0a5.4,5.4,0,0,0-3.39,1.318c-2.077,1.751-2.028,4.108-1.882,6.482H109.6c0-.835-.015-1.635,0-2.433a3.911,3.911,0,0,1,2.5-3.535,8.021,8.021,0,0,1,3.378-.161l-1.751,1.668,1.07,1.07m-.9,6.666.069-.105c.684,0,1.369.014,2.053,0a5.311,5.311,0,0,0,2.683-.8,6.446,6.446,0,0,0,2.564-7.017h-1.5c0,.816.014,1.612,0,2.408a3.772,3.772,0,0,1-2.848,3.663,20.356,20.356,0,0,1-2.971.248l-.051-.172,1.7-1.629-1.018-1.086-3.6,3.626,3.56,3.571,1.11-1.065-1.745-1.64" transform="translate(-90.809 -64.357)" fill="#fecf4a"/>
      <path id="Trazado_728250" data-name="Trazado 728250" d="M98.738,49.546H85.783a2.271,2.271,0,0,1-.487-.016.779.779,0,0,1,.006-1.537,1.9,1.9,0,0,1,.39-.014h26.057a2.028,2.028,0,0,1,.39.011.78.78,0,0,1-.007,1.545,2.73,2.73,0,0,1-.488.012H98.738" transform="translate(-75.249 -43.271)" fill="#fddd7d"/>
      <path id="Trazado_728251" data-name="Trazado 728251" d="M124.31,25.552a7.92,7.92,0,0,1,.625-1.19,1,1,0,0,1,.7-.345q7.578-.029,15.155,0a1.128,1.128,0,0,1,.743.431,6.35,6.35,0,0,1,.571,1.1Z" transform="translate(-109.726 -22.433)" fill="#e5ba43"/>
      <path id="Trazado_728252" data-name="Trazado 728252" d="M31.787,102.017H33.32v3.133H31.787v-.782h-.563q-2.761,0-5.522,0c-.618,0-.972-.292-.972-.784s.354-.782.972-.783c2,0,4,0,6.045,0,.014-.275.027-.529.041-.782" transform="translate(-23.162 -90.25)" fill="#81e08b"/>
      <path id="Trazado_728253" data-name="Trazado 728253" d="M294.294,102.031h1.534v.78h.565q2.76,0,5.52,0c.616,0,.972.293.971.784s-.356.782-.973.782c-2,0-4,0-6.043,0l-.041.783h-1.533q0-1.566,0-3.131" transform="translate(-257.49 -90.262)" fill="#fd665a"/>
      <rect id="Rectángulo_344252" data-name="Rectángulo 344252" width="1.498" height="3.095" transform="translate(14.9 42.361)" fill="#a2a2a2"/>
      <rect id="Rectángulo_344253" data-name="Rectángulo 344253" width="1.512" height="3.079" transform="translate(30.549 42.389)" fill="#a2a2a2"/>
      <rect id="Rectángulo_344254" data-name="Rectángulo 344254" width="1.508" height="3.074" transform="translate(39.161 42.391)" fill="#888"/>
      <rect id="Rectángulo_344255" data-name="Rectángulo 344255" width="1.506" height="3.075" transform="translate(6.294 42.376)" fill="#888"/>
      <path id="Trazado_728254" data-name="Trazado 728254" d="M151.084,136.043l-1.07-1.07,1.751-1.668a8.019,8.019,0,0,0-3.378.161,3.911,3.911,0,0,0-2.5,3.535c-.018.8,0,1.6,0,2.434h-1.532c-.145-2.375-.194-4.731,1.882-6.483a5.4,5.4,0,0,1,3.39-1.318c.693-.022,1.387,0,2.158,0l-1.742-1.7,1.087-1.066,3.56,3.57-3.6,3.609" transform="translate(-127.093 -113.587)" fill="#040301"/>
      <path id="Trazado_728255" data-name="Trazado 728255" d="M169.913,182.078l1.745,1.64-1.11,1.065-3.56-3.571,3.6-3.626,1.018,1.086-1.7,1.629.051.172a20.356,20.356,0,0,0,2.971-.248,3.772,3.772,0,0,0,2.848-3.663c.016-.8,0-1.592,0-2.408h1.5a6.446,6.446,0,0,1-2.564,7.017,5.311,5.311,0,0,1-2.683.8c-.684.018-1.369,0-2.053,0l-.069.105" transform="translate(-146.825 -152.956)" fill="#040301"/>
    </g>
  </g>
</svg>
